<svg xmlns="http://www.w3.org/2000/svg" width="698.284" height="608.578" viewBox="0 0 698.284 608.578">
  <g id="illustration" transform="translate(0 0)">
    <path id="Path_1397" data-name="Path 1397" d="M577.647,743.986a1.216,1.216,0,0,0,.882-2.108l-.083-.331.033-.08a3.267,3.267,0,0,1,6.026.022c.985,2.373,2.24,4.751,2.549,7.261a9.665,9.665,0,0,1-.17,3.324,38.744,38.744,0,0,0,3.524-16.092,37.388,37.388,0,0,0-.232-4.172q-.192-1.7-.533-3.382a39.193,39.193,0,0,0-7.772-16.611,10.43,10.43,0,0,1-4.338-4.5,7.957,7.957,0,0,1-.724-2.174,9.819,9.819,0,0,0,.637-3.386c.294-.447.821-.669,1.142-1.1,1.6-2.167,3.8-1.789,4.951,1.156,2.456,1.24,2.48,3.3.973,5.273-.959,1.258-1.091,2.96-1.932,4.307.087.111.177.218.263.329a39.444,39.444,0,0,1,4.117,6.522,16.4,16.4,0,0,1,.979-7.617c.937-2.261,2.693-4.164,4.24-6.119a3.366,3.366,0,0,1,5.995,1.653l.009.086q-.345.194-.675.413a1.65,1.65,0,0,0,.665,3l.034.005a16.42,16.42,0,0,1-.433,2.455c1.984,7.673-2.3,10.468-8.416,10.594-.135.069-.267.138-.4.2a40.258,40.258,0,0,1,2.167,10.2,38.188,38.188,0,0,1-.028,6.166l.01-.073a10.091,10.091,0,0,1,3.445-5.827c2.651-2.178,6.4-2.979,9.256-4.73a1.894,1.894,0,0,1,2.9,1.842l-.012.076a11.089,11.089,0,0,0-1.243.6q-.345.194-.675.413a1.65,1.65,0,0,0,.665,3l.034.005.069.01a16.432,16.432,0,0,1-3.022,4.733c-1.241,6.7-6.569,7.334-12.269,5.383h0a40.248,40.248,0,0,1-2.7,7.894h-9.659c-.035-.107-.066-.218-.1-.325a10.976,10.976,0,0,0,2.673-.159c-.717-.879-1.433-1.766-2.15-2.645a.6.6,0,0,1-.045-.052c-.364-.45-.73-.9-1.094-1.347h0a16.072,16.072,0,0,1,.471-4.1Z" transform="translate(-250.858 -145.711)" fill="#f2f2f2"/>
    <path id="Path_1398" data-name="Path 1398" d="M336.983,743.986a1.216,1.216,0,0,1-.882-2.108l.083-.331-.033-.08a3.267,3.267,0,0,0-6.026.022c-.986,2.373-2.24,4.751-2.549,7.261a9.663,9.663,0,0,0,.17,3.324,38.744,38.744,0,0,1-3.524-16.092,37.4,37.4,0,0,1,.232-4.172q.192-1.7.533-3.382a39.193,39.193,0,0,1,7.772-16.611,10.431,10.431,0,0,0,4.338-4.5,7.955,7.955,0,0,0,.724-2.174,9.819,9.819,0,0,1-.637-3.386c-.294-.447-.821-.669-1.142-1.1-1.6-2.167-3.8-1.789-4.951,1.156-2.456,1.24-2.48,3.3-.973,5.273.959,1.258,1.091,2.96,1.932,4.307-.087.111-.177.218-.263.329a39.44,39.44,0,0,0-4.117,6.522,16.4,16.4,0,0,0-.979-7.617c-.937-2.261-2.693-4.164-4.24-6.119a3.366,3.366,0,0,0-5.995,1.653l-.009.086q.345.194.675.413a1.65,1.65,0,0,1-.665,3l-.034.005a16.423,16.423,0,0,0,.433,2.455c-1.984,7.673,2.3,10.468,8.416,10.594.135.069.267.138.4.2a40.263,40.263,0,0,0-2.167,10.2,38.188,38.188,0,0,0,.028,6.166l-.01-.073a10.091,10.091,0,0,0-3.445-5.827c-2.651-2.178-6.4-2.979-9.256-4.73a1.894,1.894,0,0,0-2.9,1.842l.012.076a11.078,11.078,0,0,1,1.243.6q.345.195.675.413a1.65,1.65,0,0,1-.665,3l-.034.005-.069.01a16.432,16.432,0,0,0,3.022,4.733c1.241,6.7,6.569,7.334,12.27,5.383h0a40.254,40.254,0,0,0,2.7,7.894h9.659c.035-.107.066-.218.1-.325a10.97,10.97,0,0,1-2.673-.159c.717-.88,1.433-1.766,2.15-2.645a.6.6,0,0,0,.045-.052c.364-.45.731-.9,1.094-1.347h0a16.076,16.076,0,0,0-.471-4.1Z" transform="translate(-250.858 -145.711)" fill="#f2f2f2"/>
    <path id="Path_1399" data-name="Path 1399" d="M482.965,224.978c1.954-3.935,5.078-7.2,6.988-11.157s2.282-9.251-.9-12.278c-2.7-2.571-6.936-2.607-10.168-4.469-8.234-4.744-8.225-19.814-17.638-21.116-4.578-.633-8.719,2.8-11.486,6.5s-4.971,8.02-8.808,10.6c-4.344,2.915-9.959,3.042-14.783,5.067-9.248,3.882-14.1,13.865-18.15,23.038-2.612,5.91-5.283,12.284-4.071,18.631-2.634,1.639-1.46,6.047,1.169,7.693s5.931,1.61,8.95,2.323c6.345,1.5,11.54,6.55,14,12.586,1.92,4.7,2.312,9.871,2.683,14.939l1.928,26.382c.286,3.912.661,8.07,3.042,11.188s7.538,4.424,10.215,1.556c2.558-2.74,1.406-7.079,1.354-10.827s3.337-8.416,6.532-6.455l1.127-2.557a40.333,40.333,0,0,0,26.6-34.682C482.369,249.491,477.417,236.147,482.965,224.978Z" transform="translate(-250.858 -145.711)" fill="#e6e6e6"/>
    <path id="Path_1400" data-name="Path 1400" d="M490.422,303.89a5.079,5.079,0,0,0-2.914-8.743l.012.422a8.733,8.733,0,0,1-4.531,1.191,13.72,13.72,0,0,0-4.661.738,3.929,3.929,0,0,0-2.585,3.615,3.816,3.816,0,0,0,2.057,2.865,11.27,11.27,0,0,0,3.5,1.063C484.434,305.631,488.1,306.077,490.422,303.89Z" transform="translate(-250.858 -145.711)" fill="#e6e6e6"/>
    <path id="Path_1401" data-name="Path 1401" d="M551.539,225.186a11.541,11.541,0,0,0,3.273-3.39,3.936,3.936,0,0,0-.255-4.44,5.273,5.273,0,0,0-3.568-1.289,27.757,27.757,0,0,0-10.515,1.24l10.452,9.26Z" transform="translate(-250.858 -145.711)" fill="#e6e6e6"/>
    <path id="Path_1402" data-name="Path 1402" d="M534.116,233.214c1.408,1.554.959,3.965.561,6.024s-.449,4.632,1.322,5.755c1.535.974,3.69.179,4.812-1.25a11.079,11.079,0,0,0,1.78-5.092,35.583,35.583,0,0,0,.743-8.037,12.391,12.391,0,0,0-2.729-7.46,8.784,8.784,0,0,0-9.957-2.326l1.619-.08a15.8,15.8,0,0,0-2.633,5.053,5.367,5.367,0,0,0,1.331,5.284C531.924,231.921,533.262,232.271,534.116,233.214Z" transform="translate(-250.858 -145.711)" fill="#e6e6e6"/>
    <path id="Path_1403" data-name="Path 1403" d="M613.536,207.146l.287-.886a6.067,6.067,0,0,0-2.729,7.134A6.63,6.63,0,0,0,613.536,207.146Z" transform="translate(-250.858 -145.711)" fill="#e6e6e6"/>
    <path id="Path_1404" data-name="Path 1404" d="M597.891,219.832a11.274,11.274,0,0,0,5.634-8.433,6.2,6.2,0,0,0-.365-3.221,3.328,3.328,0,0,0-2.424-2l-.656,1.032c-.94-.809-2.519.023-2.914,1.2a6.419,6.419,0,0,0,.3,3.65,4.811,4.811,0,0,1-.057,3.621,13.023,13.023,0,0,1-1.774,1.864,1.857,1.857,0,0,0-.339,2.335C595.918,220.582,597.072,220.286,597.891,219.832Z" transform="translate(-250.858 -145.711)" fill="#e6e6e6"/>
    <path id="Path_1405" data-name="Path 1405" d="M591.221,214.068a6.136,6.136,0,0,0,.763-3.311l-1.434-.45a6.122,6.122,0,0,0-2.368,1.713,1.866,1.866,0,1,0,3.039,2.047Z" transform="translate(-250.858 -145.711)" fill="#e6e6e6"/>
    <path id="Path_1406" data-name="Path 1406" d="M661.286,206.814c.13.109.258.22.388.33.114-.024.223-.067.339-.081Z" transform="translate(-250.858 -145.711)" fill="#e6e6e6"/>
    <path id="Path_1407" data-name="Path 1407" d="M658.989,219.4l3.948-3.194a6.585,6.585,0,0,0,1.755-1.844,4.46,4.46,0,0,0-.318-4.295,11.811,11.811,0,0,0-2.7-2.918,4.881,4.881,0,0,0-3.725,5.3c.238,1.51,1.186,3.124.412,4.442-.3.513-.82.862-1.167,1.346s-.46,1.253.017,1.608C657.742,220.237,658.475,219.81,658.989,219.4Z" transform="translate(-250.858 -145.711)" fill="#e6e6e6"/>
    <path id="Path_1408" data-name="Path 1408" d="M661.868,225.912a3.418,3.418,0,0,0,2.643-1.04,23.338,23.338,0,0,0,4.569-5.019l-8.884,2.814.923,1.08C660.3,224.281,660.906,225.728,661.868,225.912Z" transform="translate(-250.858 -145.711)" fill="#e6e6e6"/>
    <path id="Path_1409" data-name="Path 1409" d="M670.168,232.007a2.27,2.27,0,0,0,2.344,1.431,3.39,3.39,0,0,0,2.416-1.547,4.5,4.5,0,0,0-3.539-7.025l.818,1.249C672.414,228.248,669.516,229.967,670.168,232.007Z" transform="translate(-250.858 -145.711)" fill="#e6e6e6"/>
    <path id="Path_1410" data-name="Path 1410" d="M727.68,255.36a4.618,4.618,0,0,0,5.542-.013,4.943,4.943,0,0,0,.3-7.243l-1.512.844a3.851,3.851,0,0,0-5.244,1.042,4.2,4.2,0,0,0,.919,5.37Z" transform="translate(-250.858 -145.711)" fill="#e6e6e6"/>
    <path id="Path_1411" data-name="Path 1411" d="M745.268,257.351a4.48,4.48,0,0,0,3.073-3.122l-2.94-.386a6.51,6.51,0,0,0-2.779-1.214,2.232,2.232,0,0,0-2.421,1.427,2.416,2.416,0,0,0,.824,2.208A4.48,4.48,0,0,0,745.268,257.351Z" transform="translate(-250.858 -145.711)" fill="#e6e6e6"/>
    <path id="Path_1412" data-name="Path 1412" d="M733.126,263.229a2.534,2.534,0,0,0,1.694,2.124,2.746,2.746,0,0,0,3.049-.472,1.683,1.683,0,0,0-.611-2.669l-2.205-.4C734.2,261.37,733.112,262.27,733.126,263.229Z" transform="translate(-250.858 -145.711)" fill="#e6e6e6"/>
    <path id="Path_1413" data-name="Path 1413" d="M605.183,278.734l-1.707-1.558A5.587,5.587,0,0,0,605.183,278.734Z" transform="translate(-250.858 -145.711)" fill="#e6e6e6"/>
    <path id="Path_1414" data-name="Path 1414" d="M592.147,269.557c1.051,4.879,6.306,8.854,11.077,7.388l.252.23c-1.519-2.079-1.776-5.155-1.422-7.83a27.574,27.574,0,0,1,15.906-21.192,6.563,6.563,0,0,0,2.985-1.945c.68-.994.426-2.7-.745-2.98a2.79,2.79,0,0,0-1.819.421l-8.866,4.364c-4.478,2.2-9.046,4.471-12.563,8.012S591.1,264.678,592.147,269.557Z" transform="translate(-250.858 -145.711)" fill="#e6e6e6"/>
    <path id="Path_1415" data-name="Path 1415" d="M449.026,437.34a108.87,108.87,0,0,0-26.881-14.048c-5.883-2.092-12.2-3.687-18.335-2.5a21.824,21.824,0,0,0-15.44,12.325,22.857,22.857,0,0,0,.747,19.812c2.827,5.3,7.722,9.516,9.358,15.293,1.1,3.895.581,8.041.05,12.054l-3.256,24.6c-.988,7.466-1.951,15.236.413,22.386s9.109,13.454,16.6,12.694l1.485-.112c-4.956-3.37-6.346-10.348-4.87-16.157s5.221-10.736,8.879-15.484l32.558-42.277c4.391-5.7,9.035-12.749,6.694-19.554C455.7,442.505,452.352,439.722,449.026,437.34Z" transform="translate(-250.858 -145.711)" fill="#e6e6e6"/>
    <path id="Path_1416" data-name="Path 1416" d="M375.065,401.715c-1.1-.373-2.26.455-2.906,1.419a19.481,19.481,0,0,1-1.834,2.948c-1.691,1.743-4.772,1.4-6.595-.207s-2.613-4.083-2.967-6.485c-.425-2.882-.241-6.1,1.661-8.3,1.958-2.271,5.177-2.881,8.138-3.353,3.059-.487,6.487-.894,8.993.927,1.579,1.147,2.5,3,3.961,4.289s4.064,1.781,5.164.17a3.965,3.965,0,0,0-.053-3.673,8.989,8.989,0,0,1-1.092-3.637c.074-1.771,1.5-3.179,2.951-4.191s3.1-1.886,4.053-3.379c1.174-1.837,1.05-4.2,1.778-6.259,1.763-4.974,8.055-7.187,9.888-12.136a4.679,4.679,0,0,0,.14-3.282c-.767-1.971-2.841-1.584-2.968-3.994-.122-2.3,1.8-4.565,3.754-5.527,2.693-1.327,5.833-1.219,8.834-1.3s6.235-.48,8.437-2.52a7.272,7.272,0,0,0-.773-10.818c-1.641-1.133-3.716-1.528-5.313-2.723-1.989-1.489-2.931-3.968-4.48-5.91a22.731,22.731,0,0,0-4.387-3.885l-3.988-2.959c-2.4-1.783-4.9-3.612-7.828-4.247s-6.407.264-7.871,2.873a8.878,8.878,0,0,0-.924,3.737,53.809,53.809,0,0,0,.381,9.154l.724,7.329c.216,2.19-.016,5.077-2.142,5.646-4.716,1.261-3.125-5.712-4.171-7.849-1.6-3.27-8.957-4.84-12.1-6.2-1.964-.851-4.037-1.791-5.223-3.573-1.476-2.218-1.173-5.236-.016-7.636s3.043-4.352,4.756-6.393c1.746-2.08,3.337-4.285,4.925-6.487l5.527-7.664c2.363-3.276,4.847-7.275,3.5-11.085a2.982,2.982,0,0,0-5.457.658c-.588,2.057.981,4.683-.52,6.207a2.814,2.814,0,0,1-3.611-.068,8.2,8.2,0,0,1-2.158-3.264c-1.819-4.042-3.591-8.108-5.458-12.128-.59-1.271-1.206-3.446-2.995-3.232-1.553.186-2.391,2.449-2.337,3.762.078,1.911,1.135,3.619,1.942,5.353s1.372,3.817.486,5.512c-1.122,2.146-3.965,2.628-6.386,2.557a29.944,29.944,0,0,1-13.072-3.449l-.316,6.729-9.64-4.035-1.872-.784c-2.711-1.135-5.425-2.27-8.215-3.191-1.584-.523-3.19-.976-4.8-1.428l-2.928-.825a15.363,15.363,0,0,0-6.009-.857c-2.143.269-4.055,1.42-6.037,2.281-4.422,1.92-10.142-.012-14.882-.046a19.9,19.9,0,0,0-33.427.926,39.811,39.811,0,0,0-2.222,4.467L253.164,294c-.943,2.114-1.907,4.341-1.722,6.648s1.954,4.665,4.269,4.644c-5.458,2.471-6.594,11.118-1.959,14.915,1.283,1.051,2.857,1.739,4.012,2.93a6.292,6.292,0,0,1-4.727,10.668,15.323,15.323,0,0,0,18.214-5.705c1.982-3.1,2.843-6.979,5.539-9.486,3.57-3.32,9.467-3.063,13.585-.452s6.722,7.056,8.514,11.591c2.348,5.942,3.851,12.732,8.853,16.707,2.419,1.922,5.482,3,7.62,5.233,3.044,3.176,3.571,7.969,3.5,12.368s-.542,8.963,1.06,13.06,6.2,7.467,10.316,5.923a16.408,16.408,0,0,0,6.869,19.165l-2.251-13.965c3.741,1.053,6.165,4.681,7.565,8.306s2.14,7.545,4.169,10.859c3.2,5.218,8.983,7.467,14.871,7.447,6.36-.021,8.775-3.054,12.966-7.52a6.84,6.84,0,0,0,1.86-2.792,2.349,2.349,0,0,0-1.223-2.828Z" transform="translate(-250.858 -145.711)" fill="#e6e6e6"/>
    <path id="Path_1417" data-name="Path 1417" d="M393.074,401.483l-10.664-1.676L388,403.168a20.22,20.22,0,0,0,5.021,2.419,6.82,6.82,0,0,0,5.4-.569l-.455-.87C397.25,402.336,395,401.786,393.074,401.483Z" transform="translate(-250.858 -145.711)" fill="#e6e6e6"/>
    <path id="Path_1418" data-name="Path 1418" d="M390.658,421.243l.025-.062a2.087,2.087,0,0,0-2.12-.983,7.749,7.749,0,0,1-2.479.04,3.517,3.517,0,0,1-2.132-2.423c-.353-1.063-.458-2.2-.86-3.246a4.764,4.764,0,0,0-3.85-3.14,3.327,3.327,0,0,0-3.579,3,5.558,5.558,0,0,0,.83,2.524l1.15,2.213a14.877,14.877,0,0,0,1.112,1.9,7.432,7.432,0,0,0,11.9.17Z" transform="translate(-250.858 -145.711)" fill="#e6e6e6"/>
    <path id="Path_1419" data-name="Path 1419" d="M369.9,232.068c2.707,1.6,6.1,2.7,7.383,5.563l.742.24-2.428,3.017c-1,1.243-2.052,2.628-2.029,4.223.032,2.2,2.145,3.854,4.281,4.372a9.381,9.381,0,0,0,10.845-6.392c.254-.926.359-1.887.581-2.821a22.94,22.94,0,0,1,2.906-6.243l21.564-36.278c.9-1.506,1.818-3.308,1.145-4.925a3.869,3.869,0,0,0-3.82-2.05,11.348,11.348,0,0,0-4.349,1.463,7.406,7.406,0,0,0-5.793-3.714,21.871,21.871,0,0,0-7.11.619,43.774,43.774,0,0,0-14.917,5.124c-2.528,1.278-5.31,2.856-6.043,5.592-.9,3.366,2.005,6.8,5.353,7.763s6.921.155,10.309-.659a7.8,7.8,0,0,1-13.039,7.36c-2.429-2.365-3.618-6.47-6.952-7.08s-5.966,2.937-6.7,6.235a17.718,17.718,0,0,0,8.072,18.592Z" transform="translate(-250.858 -145.711)" fill="#e6e6e6"/>
    <path id="Path_1420" data-name="Path 1420" d="M411.585,290.256a63.748,63.748,0,0,0-6.271-12.869,38.45,38.45,0,0,0-7.128-8.59,27.542,27.542,0,0,0-8.621-5.05c-3.065-1.108-6.477-1.656-9.576-.645s-5.735,3.892-5.672,7.15c.069,3.6,3.222,6.421,6.508,7.9s6.941,2.125,10.04,3.963a15.049,15.049,0,0,1,7.228,12.149l.781,1.291a15.6,15.6,0,0,0-4.87,2.652,5.3,5.3,0,0,0-1.85,4.977c.542,2.182,2.769,3.434,4.784,4.432l11.167,5.531c-1.9-5.652,4.31-10.911,4.653-16.862a15.589,15.589,0,0,0-1.172-6.031Z" transform="translate(-250.858 -145.711)" fill="#e6e6e6"/>
    <path id="Path_1421" data-name="Path 1421" d="M317.988,275c2.258,1.754,5.73.933,7.8-1.04s3.076-4.782,4.016-7.482a28.888,28.888,0,0,0,.1,8.044,9.744,9.744,0,0,0,4.239,6.59A11.424,11.424,0,0,0,337.4,282.3a27.469,27.469,0,0,0,15.937-1.139l.046-1.738c-2.553.291-4.485-2.509-4.654-5.073s.762-5.079.844-7.647-1.156-5.569-3.685-6.026a4.888,4.888,0,0,1-6.217,6.707c-2.927-1.19-3.99-4.756-6.252-6.962a9.487,9.487,0,0,0-10.41-1.464,12.911,12.911,0,0,0-6.692,8.51C315.631,270.1,315.834,273.325,317.988,275Z" transform="translate(-250.858 -145.711)" fill="#e6e6e6"/>
    <path id="Path_1422" data-name="Path 1422" d="M387.677,256.7l.1-.17c-.63-1.82-2.584-2.888-4.492-3.159a29.188,29.188,0,0,0-5.763.191A8.356,8.356,0,0,1,372,252.342c-1.313-.981-2.061-2.526-3.11-3.785s-2.748-2.294-4.273-1.692c-1.651.652-2.091,2.965-1.29,4.549a8.042,8.042,0,0,0,4.045,3.3,31.2,31.2,0,0,0,20.3,1.982Z" transform="translate(-250.858 -145.711)" fill="#e6e6e6"/>
    <path id="Path_1423" data-name="Path 1423" d="M365.985,262.153a2.535,2.535,0,0,0,2.824,4.205l.557.55c.741-1.326,1.046-3.1.1-4.291a2.631,2.631,0,0,0-3.48-.464Z" transform="translate(-250.858 -145.711)" fill="#e6e6e6"/>
    <path id="Path_1424" data-name="Path 1424" d="M359.469,266.911a2.347,2.347,0,0,0-1.464-2.215,2.247,2.247,0,0,0-2.609,1.931A4.483,4.483,0,0,0,356.57,270a3.094,3.094,0,0,0,2.148,1.35c.873.029,1.762-.884,1.409-1.682l-1.333-.026a6.881,6.881,0,0,0,.675-2.731Z" transform="translate(-250.858 -145.711)" fill="#e6e6e6"/>
    <path id="Path_1425" data-name="Path 1425" d="M333.41,253.264l1.468,1.19a17.6,17.6,0,0,0,2.735,1.942,7.492,7.492,0,0,0,5.573.682,5.736,5.736,0,0,0,3.922-3.87c.585-2.2-.369-4.494-1.3-6.576a3.99,3.99,0,0,0-1.026-1.565,1.368,1.368,0,0,0-1.731-.068,1.712,1.712,0,0,0-.279,1.644,4.485,4.485,0,0,1,.27,1.714c-.093.576-.7,1.119-1.229.881l-.085,1.959c-2.541-1.286-3.885-4.708-6.713-5.045a3.49,3.49,0,0,0-3.485,5.122,7.011,7.011,0,0,0,1.884,1.989Z" transform="translate(-250.858 -145.711)" fill="#e6e6e6"/>
    <path id="Path_1426" data-name="Path 1426" d="M327.358,244.807a3.87,3.87,0,0,0,1.65-3.687,2.379,2.379,0,0,0-3.23-1.724,3.831,3.831,0,0,0-1.439,2.209l-2.009,5.667,1.126-.819A11.384,11.384,0,0,0,327.358,244.807Z" transform="translate(-250.858 -145.711)" fill="#e6e6e6"/>
    <path id="Path_1427" data-name="Path 1427" d="M340.4,233.214a2.215,2.215,0,0,0-.684-3.325l-1.407-.132a2.112,2.112,0,1,0,2.091,3.457Z" transform="translate(-250.858 -145.711)" fill="#e6e6e6"/>
    <path id="Path_1428" data-name="Path 1428" d="M353.349,235.387c1.313.628,2.976,1.227,4.118.325a2.6,2.6,0,0,0,.8-2.475,6.294,6.294,0,0,0-1.161-2.446,23.5,23.5,0,0,0-6.535-6.31l-.635.825c-.887,2.3-1.743,4.992-.506,7.127C350.259,233.871,351.848,234.669,353.349,235.387Z" transform="translate(-250.858 -145.711)" fill="#e6e6e6"/>
    <path id="Path_1429" data-name="Path 1429" d="M363.132,237.436l2.456,1.111a2.3,2.3,0,0,0-2.456-1.111Z" transform="translate(-250.858 -145.711)" fill="#e6e6e6"/>
    <path id="Path_1430" data-name="Path 1430" d="M356.514,245.163l-1.16.382c-.987,1.622-.559,3.7-.1,5.537.29,1.164.916,2.6,2.115,2.544,1.167-.052,1.683-1.466,1.907-2.612a7.884,7.884,0,0,0,.11-3.82,2.707,2.707,0,0,0-2.872-2.032Z" transform="translate(-250.858 -145.711)" fill="#e6e6e6"/>
    <path id="Path_1431" data-name="Path 1431" d="M338.008,239.706l.859.346a.924.924,0,1,0-.859-.346Z" transform="translate(-250.858 -145.711)" fill="#e6e6e6"/>
    <path id="Path_1432" data-name="Path 1432" d="M381.3,305.362a2.61,2.61,0,0,0-2.388,3.518c.843,1.816,3.747,1.824,5.038.293a3.952,3.952,0,0,0-1.019-5.723Z" transform="translate(-250.858 -145.711)" fill="#e6e6e6"/>
    <path id="Path_1433" data-name="Path 1433" d="M423.122,348.373a2.613,2.613,0,0,0-1.832,3.269l2.411.167,2.449-1.229a2.613,2.613,0,0,0-3.028-2.207Z" transform="translate(-250.858 -145.711)" fill="#e6e6e6"/>
    <path id="Path_1434" data-name="Path 1434" d="M413.323,351.356a4.982,4.982,0,0,0-2.089,4.361,3.986,3.986,0,0,0,3.119,3.524,3.332,3.332,0,0,0,3.765-2.554c.408-2.494-2.272-4.32-3.235-6.656Z" transform="translate(-250.858 -145.711)" fill="#e6e6e6"/>
    <path id="Path_1435" data-name="Path 1435" d="M506.959,334.887c.255,1.872-1.432,3.512-1.495,5.4-.074,2.24,2.364,3.983,4.6,3.763a7.266,7.266,0,0,0,5.219-3.834l.048-.21-3.26-3.684c-1.334-1.508-2.749-3.225-2.7-5.238.026-.992.417-1.954.395-2.946a7.14,7.14,0,0,0-.472-2.082c-.294-.878-.695-1.867-1.572-2.164-1.1-.371-2.206.6-2.731,1.636a6.472,6.472,0,0,0,.191,6.1C505.816,332.7,506.79,333.648,506.959,334.887Z" transform="translate(-250.858 -145.711)" fill="#e6e6e6"/>
    <path id="Path_1436" data-name="Path 1436" d="M496.712,341.473a1.872,1.872,0,0,0,1.561.1,8.17,8.17,0,0,0,2.747-1,2.774,2.774,0,0,0,1.344-2.453,3.209,3.209,0,0,0-2.614-2.427,2.811,2.811,0,0,0-2.615.4c-.81.759-.713,2.048-.554,3.147l-.171.286C496.258,340.206,496.16,341.05,496.712,341.473Z" transform="translate(-250.858 -145.711)" fill="#e6e6e6"/>
    <path id="Path_1437" data-name="Path 1437" d="M667.738,421.476l-.705-1.753C666.711,420.516,666.83,421.328,667.738,421.476Z" transform="translate(-250.858 -145.711)" fill="#e6e6e6"/>
    <path id="Path_1438" data-name="Path 1438" d="M808.815,298.549c-3.016-3.272-4.863-5.159-6.767-9.214a14.931,14.931,0,0,0-11.3-8.484c-6.257-1.031-12.65.6-18.983.274-10.143-.524-19.29-5.964-29-8.932a121.361,121.361,0,0,0-16.575-3.419l-9.677-1.53c-10.573-1.672-21.214-3.349-31.916-3.127-3.086.064-7.385-.864-7.138-3.94.307-3.821,7.182-3.32,8.505-6.918.818-2.226-1.14-4.563-3.287-5.57s-4.626-1.309-6.575-2.661-3.017-4.484-1.226-6.038l-14.894,7.635c-4.128,2.116-8.74,4.869-9.469,9.45a10.95,10.95,0,0,0-6.148,4.271c-2.793.015-4.987,2.7-5.448,5.45s.377,5.542,1.2,8.209c-1.013-1.94-2.089-3.955-3.874-5.221s-4.5-1.507-6.026.066c-1.562,1.614-1.2,4.322-.092,6.277s2.8,3.534,3.845,5.523c3.257,6.213-2.644,14.961-9.625,14.269l1.4-19.248a12.881,12.881,0,0,0-.485-5.887c-.761-1.837-2.711-3.345-4.652-2.911-3.489.78-3.191,5.891-1.739,9.158s2.9,7.811-.065,9.812c-1.913,1.292-4.507.494-6.573-.537s-4.275-2.3-6.533-1.82-3.678,3.933-1.683,5.1l-9.925-1.725a7.06,7.06,0,0,1-8.834,5.636l-.974-4.038-1.452-.4c1.52.423-.858,6.832-2.989,11.727-2.865-.336-7.053-.4-7.531-1.222-2.288-3.932-2.016-13.3-5.992-15.51q-2.99-1.664-6.133-3.033a14.383,14.383,0,0,0-3.46-1.136c-2.441-.385-4.9.372-7.258,1.121-2.783.884-5.632,1.8-7.936,3.6a24.827,24.827,0,0,0-5,5.945l-13.652,20.2a21.652,21.652,0,0,0-3.162,5.925,7.741,7.741,0,0,0,.72,6.413,4.963,4.963,0,0,0,5.812,1.986c1.319-.571,2.64-1.865,3.947-1.267.99.453,1.237,1.754,1.133,2.837a7.579,7.579,0,0,0-.058,3.233c.6,1.687,2.884,2.273,4.517,1.544a6.981,6.981,0,0,0,3.318-4.04c1.573-4.035,1.413-8.5,1.8-12.812s1.571-8.926,4.971-11.608c1.018-.8,2.513-1.381,3.561-.618a2.546,2.546,0,0,1,.626,2.89,11.317,11.317,0,0,1-1.7,2.666,14.614,14.614,0,0,0-2.4,11.406l.695.43c2.651-.688,6.2.544,9.72,1.724a12.651,12.651,0,0,0-6.428,4.422c-4.069,5.709-7.014,11.111-15.063,11.043-1.909-.016-3.8-.394-5.712-.4a7.466,7.466,0,0,0-5.3,1.764c-1.448,1.417-1.9,3.576-3.134,5.179-1.628,2.108-4.35,2.966-6.836,3.923-1.817.7-3.732,1.644-4.567,3.4a8.429,8.429,0,0,0-.35,4.506c.28,2.663.775,5.693,3.035,7.13a7.188,7.188,0,0,0,5.532.468c2.35-.572,4.649-1.648,7.062-1.488,3.79.253,6.91,3.89,6.949,7.688.019,1.922-.541,4.127.733,5.567,1.2,1.353,3.572,1.112,4.813-.2a5.546,5.546,0,0,0,1.045-5.09,16.371,16.371,0,0,0-2.4-4.831,5.638,5.638,0,0,1,6.487,3c.842,1.87.57,4.028.838,6.061s1.506,4.293,3.554,4.41a2.869,2.869,0,0,0,2.885-2.264,20.624,20.624,0,0,0-.168-3.087,3.955,3.955,0,0,1,3.994-3.68,5.636,5.636,0,0,0,1.381,7.038c1.558,1.206,3.618,1.475,5.559,1.812s4.011.87,5.264,2.39c2.087,2.533-.467,3.673-.864,5.818-.488,2.633,1.712,6.522,2.556,9.041l11.647,16.294a19.712,19.712,0,0,0,3.044,3.609c3.832,3.292,10.151,2.967,13.826-.5a11.853,11.853,0,0,0,2.013-13.939c-2.271-4.134-6.772-6.695-8.994-10.856a23.724,23.724,0,0,0,13.023,5.356,65.668,65.668,0,0,1,23.66,9.923,32.993,32.993,0,0,0,8.136,20.251,29.16,29.16,0,0,1,8.461-16.8c2.991-2.917,7.078-5.269,11.181-4.484s7.217,6.017,4.735,9.378l6.239.464,2.8,6.957a2.409,2.409,0,0,1,2.35-1.631c1.947.294,3.312,2.105,5.164,2.774,3.491,1.261,7.223-2.232,7.674-5.916s-1.3-7.241-3-10.539a19.671,19.671,0,0,0,20.213-29.846,50.091,50.091,0,0,1,14.071-10.36c4.869-2.405,10.195-4.056,14.45-7.431s7.239-9.233,5.193-14.263c-1.446-3.553-5.072-5.965-6.158-9.645-1.571-5.327,3.2-10.836,8.593-12.167s11.022.3,16.333,1.928c-.816-5.465,5.518-10.588,10.692-8.648l6.5-2.632c-2.512,5.538-7.954,9.061-11.956,13.639s-6.385,12.033-2.2,16.449l17.977-16.293,18.8-17.043-.9-2.638C796.756,303.209,803.143,301.346,808.815,298.549Z" transform="translate(-250.858 -145.711)" fill="#e6e6e6"/>
    <path id="Path_1439" data-name="Path 1439" d="M497.572,371.645a2.063,2.063,0,0,0,.012,2.372,1.816,1.816,0,0,0,2.313.031,5.3,5.3,0,0,0,1.466-2.029,3.3,3.3,0,0,0,3.356,1.758,8.256,8.256,0,0,0,3.7-1.544,8.117,8.117,0,0,0,2.249-1.951,3.211,3.211,0,0,0,.565-2.827,4.871,4.871,0,0,0-1.461-1.886l-4.757-4.394-.537-.161a3.03,3.03,0,0,0-4.372-.047c-.985,1.1-.989,2.749-.839,4.219s.385,3.037-.27,4.362C498.626,370.307,497.99,370.908,497.572,371.645Z" transform="translate(-250.858 -145.711)" fill="#e6e6e6"/>
    <path id="Path_1440" data-name="Path 1440" d="M589.567,421.676a33.063,33.063,0,0,1-25.125-25.254c-.584-2.911-.849-6.092-2.786-8.342-1.875-2.179-4.938-2.965-7.812-2.965s-5.708.662-8.577.841c-5.016.313-10.331-1.012-13.917-4.532-1.7-1.667-2.984-3.784-4.968-5.1-2.666-1.767-6.2-1.766-9.239-.764-3.384,1.115-6.092,4.167-9.792,3.747-3.848-.437-8.307-1.8-9.816,3.27-.434,1.459-.286,3.059-.836,4.478-.848,2.187-3.1,3.42-4.878,4.948-3.586,3.078-5.491,7.753-6.134,12.435s-.145,9.436.352,14.135c.268,2.535.621,5.262,2.362,7.124,2.427,2.595,6.5,2.495,10.04,2.2l12.341-1.019c2.218-.183,4.744-.261,6.323,1.307.946.94,1.346,2.3,2.178,3.341a5.129,5.129,0,0,0,6.258,1.262,10.388,10.388,0,0,0,7.837,15.391l.317.2c-2.634,4.51-5.366,9.574-4.274,14.681.936,4.379,4.563,7.89,5.156,12.328.544,4.072-1.581,8.237-.641,12.237.952,4.05,5.042,6.874,9.192,7.175s8.227-1.539,11.441-4.181,5.7-6.044,8.149-9.408c1.512-2.077,3.063-4.238,3.582-6.754.552-2.677-.088-5.644,1.214-8.048,1.5-2.772,5.065-3.811,6.864-6.4,2.329-3.352.957-7.918,1.472-11.968C577.123,438.02,589.857,431.774,589.567,421.676Z" transform="translate(-250.858 -145.711)" fill="#e6e6e6"/>
    <path id="Path_1441" data-name="Path 1441" d="M587.728,455.89c-.348,1.565-1.814,2.6-3.21,3.383s-2.932,1.582-3.643,3.019c-.729,1.471-.4,3.225-.015,4.822q1.189,4.984,2.8,9.853a100.33,100.33,0,0,0,5.446-12.187,16.013,16.013,0,0,0,1.195-4.886,6.043,6.043,0,0,0-1.643-4.617Z" transform="translate(-250.858 -145.711)" fill="#e6e6e6"/>
    <path id="Path_1442" data-name="Path 1442" d="M673.418,438.46l-5.249-6.06c-1.2-1.381-2.561-2.857-4.374-3.087l-.746.477,4.551,10.837a10.289,10.289,0,0,0,2.748,4.323c1.358,1.067,3.56,1.272,4.693-.032a3.48,3.48,0,0,0,.411-3.452,10.253,10.253,0,0,0-2.034-3.006Z" transform="translate(-250.858 -145.711)" fill="#e6e6e6"/>
    <path id="Path_1443" data-name="Path 1443" d="M690.372,442.328a5.03,5.03,0,0,0,2.974-2.772,14.906,14.906,0,0,0,1.064-4.037l.9-5.426-.391-.1a1.742,1.742,0,0,0-2.209.613,8.652,8.652,0,0,0-.99,2.312,2.8,2.8,0,0,1-1.6,1.838c-1.4.424-2.735-1.065-4.2-1.007a2.641,2.641,0,0,0-2.294,2.355,5.12,5.12,0,0,0,.96,3.364C685.834,441.407,688.154,442.966,690.372,442.328Z" transform="translate(-250.858 -145.711)" fill="#e6e6e6"/>
    <path id="Path_1444" data-name="Path 1444" d="M700.046,445.757l4.032-10.62a10.358,10.358,0,0,0-4.032,10.62Z" transform="translate(-250.858 -145.711)" fill="#e6e6e6"/>
    <path id="Path_1445" data-name="Path 1445" d="M720.625,437.2l-.815.035a5.26,5.26,0,0,0-.044,4.657,10.5,10.5,0,0,0,3.042,3.7,21.369,21.369,0,0,0,6.711,3.747,42.705,42.705,0,0,0,11.027,1.7l6.4.419c1.017.067,2.332-.062,2.615-1.041.233-.808-.455-1.568-1.1-2.111a40.239,40.239,0,0,0-19.79-8.982C725.908,438.894,722.971,438.721,720.625,437.2Z" transform="translate(-250.858 -145.711)" fill="#e6e6e6"/>
    <path id="Path_1446" data-name="Path 1446" d="M743.41,465.38l-4.606-4.466c-1.493-1.448-3.73-2.982-5.441-1.8-.983.68-1.287,2-2.12,2.861a4.094,4.094,0,0,1-3.8.9,12.083,12.083,0,0,1-3.666-1.738l-3.81-2.364-3.943-2.447-2.966,2.883c.129-1.419-1.763-2.341-3.072-1.78a4.746,4.746,0,0,0-2.363,3.378,18.469,18.469,0,0,1-1.134,4.107c-1.506,2.884-5.163,3.738-8.381,4.221s-6.862,1.163-8.584,3.923c-1.434,2.3-1,5.251-.525,7.918l1.813,10.09a5.515,5.515,0,0,0,1.394,3.294c1.593,1.406,4.06.551,6-.306a40.6,40.6,0,0,1,12.9-3.74,18.622,18.622,0,0,1,12.785,3.275c2.306,1.755,4.064,4.186,6.507,5.745a12.907,12.907,0,0,0,11.289.985,16.808,16.808,0,0,0,8.586-7.657,20.113,20.113,0,0,0-.433-19.911,39.479,39.479,0,0,0-6.441-7.376Z" transform="translate(-250.858 -145.711)" fill="#e6e6e6"/>
    <path id="Path_1447" data-name="Path 1447" d="M738.883,506.489a2.712,2.712,0,0,0-.172,3.215,4.443,4.443,0,0,0,2.838,1.827,13.192,13.192,0,0,0,3.451.158l.035-.861a8.842,8.842,0,0,0-2.021-4.073C741.9,505.7,739.937,505.373,738.883,506.489Z" transform="translate(-250.858 -145.711)" fill="#e6e6e6"/>
    <path id="Path_1448" data-name="Path 1448" d="M778.416,507.409l-.55-.2-3.93,5.923c-.7,1.062-1.44,2.338-1.01,3.538.509,1.42,2.39,1.837,3.852,1.461a6.077,6.077,0,0,0,4.394-4.823A5.967,5.967,0,0,0,778.416,507.409Z" transform="translate(-250.858 -145.711)" fill="#e6e6e6"/>
    <path id="Path_1449" data-name="Path 1449" d="M788.4,501.143l-3.617-2.875q-.072,2-.145,4l-.136,0a26.572,26.572,0,0,1,2.357,2.344c.846.72,2.267,1.049,2.99.206a1.891,1.891,0,0,0,.078-2.087A5.553,5.553,0,0,0,788.4,501.143Z" transform="translate(-250.858 -145.711)" fill="#e6e6e6"/>
    <path id="Path_1450" data-name="Path 1450" d="M723.068,376.064c-1.517-.047-3.2-.14-4.373.82a5.866,5.866,0,0,0-1.009,1.177l-.415.58a15.955,15.955,0,0,0-1.615,2.6,3.427,3.427,0,0,0-.22,2.834,1.643,1.643,0,0,0,2.425.7c.649-.6.5-1.69.987-2.426a2.267,2.267,0,0,1,1.826-.873,12.01,12.01,0,0,1,2.085.236,10.06,10.06,0,0,0,9.845-15.379l-.122-.373a4.493,4.493,0,0,0-4.557,3.513c-.339,1.768.38,3.822-.692,5.268C726.329,375.956,724.585,376.111,723.068,376.064Z" transform="translate(-250.858 -145.711)" fill="#e6e6e6"/>
    <path id="Path_1451" data-name="Path 1451" d="M736.651,357.319l-.231-.02a11.732,11.732,0,0,0-3.848,1.434,1.783,1.783,0,0,0-.877.889,1.294,1.294,0,0,0,.306,1.19,3.817,3.817,0,0,0,1.02.768,6.074,6.074,0,0,0,1.854.83,2.059,2.059,0,0,0,1.893-.489,2.735,2.735,0,0,0,.444-2.267A11.92,11.92,0,0,0,736.651,357.319Z" transform="translate(-250.858 -145.711)" fill="#e6e6e6"/>
    <path id="Path_1452" data-name="Path 1452" d="M713.262,376.514a5.845,5.845,0,0,0,.761-1.892l.425-1.562-1.513-.919a8.76,8.76,0,0,0-1.98,1.412,2.954,2.954,0,0,0-.908,2.188,1.806,1.806,0,0,0,1.485,1.686,1.984,1.984,0,0,0,1.73-.912Z" transform="translate(-250.858 -145.711)" fill="#e6e6e6"/>
    <path id="Path_1453" data-name="Path 1453" d="M548.477,235.85c-.6.373-.429,1.274-.186,1.936l.836,2.279.39-1.475a3.134,3.134,0,0,0,.431-1.9C549.812,236.041,549.039,235.5,548.477,235.85Z" transform="translate(-250.858 -145.711)" fill="#e6e6e6"/>
    <path id="Path_1454" data-name="Path 1454" d="M926.142,372.711h-253a23.026,23.026,0,0,1-23-23v-181a23.026,23.026,0,0,1,23-23h253a23.026,23.026,0,0,1,23,23v181a23.026,23.026,0,0,1-23,23Z" transform="translate(-250.858 -145.711)" fill="#fff"/>
    <path id="Path_1455" data-name="Path 1455" d="M926.142,372.711h-253a23.026,23.026,0,0,1-23-23v-181a23.026,23.026,0,0,1,23-23h253a23.026,23.026,0,0,1,23,23v181a23.026,23.026,0,0,1-23,23Zm-253-225a21.024,21.024,0,0,0-21,21v181a21.024,21.024,0,0,0,21,21h253a21.024,21.024,0,0,0,21-21v-181a21.024,21.024,0,0,0-21-21Z" transform="translate(-250.858 -145.711)" fill="#3f3d56"/>
    <path id="Path_1456" data-name="Path 1456" d="M741.976,173.27h-40a4,4,0,0,1,0-8h40a4,4,0,0,1,0,8Z" transform="translate(-250.858 -145.711)" fill="#ccc"/>
    <path id="Path_1457" data-name="Path 1457" d="M828.976,263.27h-127a4,4,0,0,1,0-8h127a4,4,0,1,1,0,8Z" transform="translate(-251.181 -48.213)" fill="#ccc"/>
    <circle id="Ellipse_2" data-name="Ellipse 2" cx="26.819" cy="26.819" r="26.819" transform="translate(446.795 38.669)" fill="#6c63ff"/>
    <rect id="Rectangle_17" data-name="Rectangle 17" width="6" height="2" transform="translate(447.118 193.947)" fill="#3f3d56"/>
    <path id="Path_1458" data-name="Path 1458" d="M880.145,341.657H867.562v-2h12.583Zm-25.167,0H842.395v-2h12.583Zm-25.167,0H817.228v-2h12.583Zm-25.167,0H792.061v-2h12.583Zm-25.167,0H766.894v-2h12.583Zm-25.167,0H741.727v-2H754.31Zm-25.167,0H716.56v-2h12.583Z" transform="translate(-250.858 -145.711)" fill="#3f3d56"/>
    <rect id="Rectangle_18" data-name="Rectangle 18" width="6" height="2" transform="translate(641.87 193.947)" fill="#3f3d56"/>
    <rect id="Rectangle_19" data-name="Rectangle 19" width="5" height="34" transform="translate(543.957 158.559)" fill="#6c63ff"/>
    <rect id="Rectangle_20" data-name="Rectangle 20" width="5" height="34" transform="translate(594.957 158.559)" fill="#6c63ff"/>
    <rect id="Rectangle_21" data-name="Rectangle 21" width="5" height="15" transform="translate(619.957 177.559)" fill="#6c63ff"/>
    <rect id="Rectangle_22" data-name="Rectangle 22" width="5" height="49" transform="translate(568.957 143.559)" fill="#6c63ff"/>
    <circle id="Ellipse_3" data-name="Ellipse 3" cx="6" cy="6" r="6" transform="translate(83.957 214.559)" fill="#6c63ff"/>
    <circle id="Ellipse_4" data-name="Ellipse 4" cx="6" cy="6" r="6" transform="translate(99.957 185.559)" fill="#6c63ff"/>
    <circle id="Ellipse_5" data-name="Ellipse 5" cx="6" cy="6" r="6" transform="translate(275.957 162.559)" fill="#6c63ff"/>
    <path id="Path_1459" data-name="Path 1459" d="M144.231,597.467h9.05l4.3-34.907H144.229Z" fill="#ffb6b6"/>
    <path id="Path_1460" data-name="Path 1460" d="M394.771,752.618H422.6v-.352a10.832,10.832,0,0,0-10.831-10.832h0l-5.083-3.857-9.484,3.857h-2.429Z" transform="translate(-250.858 -145.711)" fill="#2f2e41"/>
    <path id="Path_1461" data-name="Path 1461" d="M212.231,597.467h9.05l4.3-34.907H212.229Z" fill="#ffb6b6"/>
    <path id="Path_1462" data-name="Path 1462" d="M462.771,752.618H490.6v-.352a10.832,10.832,0,0,0-10.831-10.832h0l-5.083-3.857-9.484,3.857h-2.429Z" transform="translate(-250.858 -145.711)" fill="#2f2e41"/>
    <path id="Path_1463" data-name="Path 1463" d="M394.737,459.217l16.061-2.3c5.432,9.083,7.362,33.258,7.362,33.258l15.718,37.358a7.163,7.163,0,1,1-11.167,5.38L396.9,489.429Z" transform="translate(-250.858 -145.711)" fill="#ffb6b6"/>
    <path id="Path_1464" data-name="Path 1464" d="M403.442,414.629h0a17.118,17.118,0,0,0-13.523,22.612l3.408,9.66s-4.293,29.087,2.782,37.3l21.711-1.965s-3.97-14.675-.922-21.775c1.866-4.348,1.763-19.367-.076-31.584C415.418,419.545,412.765,413.185,403.442,414.629Z" transform="translate(-250.858 -145.711)" fill="#3f3d56"/>
    <path id="Path_1465" data-name="Path 1465" d="M478.315,502.27s16.735,16.321,13.161,20.09-11.748,9.05-4.161,9.91,10.735,2.724,4.161,4.292-5.558,5.594-5.558,5.594,9.9,47.114,2.4,78.114c0,0-4.174,84.672-6.793,91.266s-3.619,2.594-2.619,6.594,3-3,1,4a92.53,92.53,0,0,0-2.587,11.14l-19.562-3s-3.15-9.927,0-12.534,5.975-1,2.562-6.8-4.413,2.2-3.413-5.8-3.174-51.268,3.413-74.134l-12.173-64.163L428.815,633.27s-10.251,81.14-13.582,84-8.331-2.14-3.331,2.86,4.913,4.14,5,5c.931,9.172-27.7-.86-27.7-.86a51.36,51.36,0,0,0,0-7c-.3-2.14,3.3-2.825,0-4.982s1.611-.018,1.611-.018,7.383-59.86,13-78l6.5-88.337s.413,1.762,0-2.521-3.413-1.283-.413-4.283,5-4.529,3-6.764-7.517-6.759-4.259-9.5,9.671-20.6,9.671-20.6l62.5.5" transform="translate(-250.858 -145.711)" fill="#2f2e41"/>
    <path id="Path_1466" data-name="Path 1466" d="M454.816,403.1l-11.269-12.689-17.807,1.979-11.4,15.955h0a24.339,24.339,0,0,0-18.528,27.879c4.424,25.475,19.459,50.183,14.495,62.752-7.536,19.08-8,26.862,10.043,24.187s78.474-8.842,66.757-20.559-14.29-31.3-14.29-31.3l-.47-44.794A19.909,19.909,0,0,0,454.816,403.1Z" transform="translate(-250.858 -145.711)" fill="#3f3d56"/>
    <path id="Path_1467" data-name="Path 1467" d="M451.737,452.217l16.061-2.3c5.432,9.083,7.362,33.258,7.362,33.258l15.718,37.358a7.163,7.163,0,1,1-11.167,5.38L453.9,482.429Z" transform="translate(-250.858 -145.711)" fill="#ffb6b6"/>
    <path id="Path_1468" data-name="Path 1468" d="M460.442,407.629h0a17.118,17.118,0,0,0-13.523,22.612l3.408,9.66s-4.293,29.087,2.782,37.3l21.711-1.965s-3.97-14.675-.922-21.775c1.866-4.348,1.763-19.367-.076-31.584C472.418,412.545,469.765,406.185,460.442,407.629Z" transform="translate(-250.858 -145.711)" fill="#3f3d56"/>
    <circle id="Ellipse_6" data-name="Ellipse 6" cx="21.523" cy="21.523" r="21.523" transform="translate(157.365 200.557)" fill="#ffb6b6"/>
    <path id="Path_1469" data-name="Path 1469" d="M425.788,388.86c5.994-1.5,6.2-3.215,12.193-4.717,1.909-.478,4.12-1.232,4.686-3.116a4.539,4.539,0,0,0-1.078-3.9,36.886,36.886,0,0,1-2.65-3.257,6.537,6.537,0,0,1,4.512-9.792c1.854-.317,3.766.174,5.633-.064,2.559-.326,6.324-9.822,4.683-11.813-1.6-1.938-4.219-3.095-5.1-5.447-.576-1.538-.261-3.258-.518-4.881-.38-2.406-5.248,4.255-4.6,1.907,1.589-5.759-25.3-6.666-28.1.722-1.046,2.761-3.879,3.2-6.058,5.193-1.428,1.306-4.844,5.487-5.339,7.74a16.333,16.333,0,0,0,.232,6.863c2.234,10.526,5.925,19.855,15.751,24.24" transform="translate(-250.858 -145.711)" fill="#2f2e41"/>
    <path id="Path_1470" data-name="Path 1470" d="M256.06,753.982l389.726.307a1.191,1.191,0,0,0,0-2.381L256.06,751.6a1.191,1.191,0,1,0,0,2.381Z" transform="translate(-250.858 -145.711)" fill="#cacaca"/>
    <text id="No_Data_Found" data-name="No Data Found" transform="translate(529.448 129.417)" fill="#6c63ff" font-size="24" font-family="SegoeUI-Bold, Segoe UI" font-weight="700"><tspan x="-85.395" y="0">No Data Found</tspan></text>
  </g>
</svg>
